<svg width="13" height="13" viewBox="0 0 13 13" fill="none" xmlns="http://www.w3.org/2000/svg">
<path d="M6.99722 1.00334C4.53963 1.00334 2.2059 0.784897 1.31451 3.07079C0.946309 4.01491 0.999779 5.24104 0.999779 6.99671C0.999779 8.53733 0.95037 9.98528 1.31451 10.922C2.20387 13.2092 4.55655 12.9901 6.99587 12.9901C9.34922 12.9901 11.7757 13.2349 12.6779 10.922C13.0468 9.96838 12.9926 8.76051 12.9926 6.99671C12.9926 4.65536 13.1219 3.14383 11.9855 2.009C10.8349 0.85929 9.27883 1.00334 6.99451 1.00334H6.99722ZM6.45981 2.08339C11.5862 2.07528 12.2386 1.50583 11.8786 9.41652C11.7506 12.2144 9.6186 11.9073 6.9979 11.9073C2.21944 11.9073 2.08204 11.7707 2.08204 6.99401C2.08204 2.16184 2.46107 2.0861 6.45981 2.08204V2.08339ZM10.1987 3.07823C9.80135 3.07823 9.47917 3.40015 9.47917 3.79714C9.47917 4.19413 9.80135 4.51605 10.1987 4.51605C10.596 4.51605 10.9181 4.19413 10.9181 3.79714C10.9181 3.40015 10.596 3.07823 10.1987 3.07823ZM6.99722 3.91887C5.29633 3.91887 3.91762 5.29717 3.91762 6.99671C3.91762 8.69626 5.29633 10.0739 6.99722 10.0739C8.69811 10.0739 10.0761 8.69626 10.0761 6.99671C10.0761 5.29717 8.69811 3.91887 6.99722 3.91887ZM6.99722 4.99892C9.64026 4.99892 9.64365 8.9945 6.99722 8.9945C4.35485 8.9945 4.35079 4.99892 6.99722 4.99892Z" fill="#764F96"/>
</svg>
